<svg width="1016" height="85" viewBox="0 0 1016 85" fill="none" xmlns="http://www.w3.org/2000/svg">
<path d="M968.021 37.3008C968.021 34.0442 968.802 31.1733 970.501 28.8271L970.508 28.8174C972.159 26.5655 974.261 24.7689 976.785 23.4326L976.796 23.4277L976.806 23.4219C979.33 22.1237 982.119 21.1988 985.155 20.6338L985.163 20.6328C988.212 20.0784 991.265 19.8008 994.32 19.8008C998.108 19.8008 1001.71 20.1448 1005.12 20.8408C1008.5 21.5297 1011.35 22.4445 1013.64 23.623L1015.01 24.334L1012.02 37.5H998.485L999.579 37.7539L999.593 37.7568L999.605 37.7598C1001.29 38.1813 1002.89 38.7118 1004.38 39.3525C1006.02 39.9563 1007.49 40.7875 1008.79 41.8564C1010.15 42.9784 1011.23 44.3717 1012.01 46.0059L1012.16 46.3262C1012.9 47.9455 1013.22 49.8291 1013.22 51.9004C1013.22 55.0206 1012.47 57.7975 1010.88 60.1221L1010.88 60.123C1009.39 62.3089 1007.32 64.0509 1004.74 65.3789L1004.73 65.3838L1004.71 65.3896C1002.22 66.6374 999.307 67.4882 996.016 67.9785L996.015 67.9775C992.838 68.4606 989.438 68.7002 985.82 68.7002C980.337 68.7002 975.71 68.2957 971.979 67.4512C968.438 66.6492 965.745 65.8369 964.093 64.9717L962.753 64.2705L965.497 51.2002H980.732C980.179 51.0366 979.633 50.8801 979.095 50.7305C978.111 50.4976 977.029 50.1308 975.859 49.6494L975.839 49.6416L975.819 49.6328C974.545 49.0752 973.343 48.2924 972.211 47.3115C970.989 46.2522 970.001 44.9333 969.231 43.3945L969.224 43.3779L969.215 43.3604C968.385 41.618 968.021 39.5704 968.021 37.3008ZM995.721 33.4004C995.721 32.4667 995.541 31.6589 995.208 30.9463L995.176 30.876L995.148 30.8027C995.11 30.6989 995.074 30.6448 995.056 30.6211C995.039 30.5998 995.028 30.5915 995.018 30.585C995.002 30.5748 994.878 30.5 994.521 30.5C994.017 30.5001 993.336 30.7136 992.444 31.5L992.418 31.5225L992.393 31.5439C991.766 32.0602 991.421 32.7374 991.421 33.8008C991.421 34.4495 991.561 34.8306 991.723 35.0693C992.104 35.4268 992.618 35.7666 993.309 36.0625C993.867 36.3017 994.477 36.5161 995.14 36.707L995.46 35.1084C995.527 34.7752 995.593 34.4416 995.659 34.1084C995.696 33.9245 995.721 33.6911 995.721 33.4004ZM997.715 33.6943C997.702 33.9816 997.671 34.2502 997.621 34.5C997.554 34.8332 997.488 35.1668 997.421 35.5H1010.42L1012.72 25.4004C1010.78 24.4004 1008.32 23.5762 1005.33 22.9277L1004.72 22.8008C1001.66 22.1758 998.42 21.8438 995.006 21.8047L994.32 21.8008C991.387 21.8008 988.454 22.0673 985.521 22.6006C982.654 23.1339 980.054 24.0002 977.721 25.2002C975.454 26.4001 973.588 28.0002 972.121 30C970.721 31.9333 970.021 34.3674 970.021 37.3008L970.024 37.6836C970.063 39.582 970.396 41.1875 971.021 42.5C971.687 43.8333 972.521 44.9341 973.521 45.8008C974.52 46.6674 975.554 47.3341 976.621 47.8008C977.754 48.2673 978.755 48.6008 979.621 48.8008C980.821 49.134 982.054 49.5005 983.32 49.9004L983.814 50.0303C984.952 50.3438 985.988 50.7335 986.921 51.2002C987.987 51.6668 988.854 52.2668 989.521 53C990.254 53.6667 990.621 54.4671 990.621 55.4004L990.615 55.5762C990.565 56.463 990.133 57.4374 989.32 58.5C988.52 59.5667 987.154 60.1006 985.221 60.1006V58.1006C986.822 58.1006 987.447 57.6656 987.721 57.3008L987.732 57.2852C988.465 56.3265 988.621 55.7165 988.621 55.4004C988.621 55.0688 988.521 54.7944 988.176 54.4805L988.104 54.416L988.041 54.3457C987.594 53.8538 986.973 53.4056 986.119 53.0322L986.072 53.0117L986.026 52.9893C985.131 52.5417 984.101 52.1639 982.927 51.8643L982.582 53.5928C982.541 53.7994 982.521 54.0013 982.521 54.2002V55.1006C982.521 56.2935 982.77 57.0609 983.099 57.5605C983.324 57.785 983.875 58.1006 985.221 58.1006V60.1006L984.901 60.0957C983.335 60.0449 982.208 59.6132 981.521 58.8008C980.854 57.8675 980.521 56.6338 980.521 55.1006V54.2002C980.521 53.8669 980.554 53.5335 980.621 53.2002H967.121L965.021 63.2002C966.421 63.9335 968.888 64.7 972.421 65.5C975.954 66.3 980.421 66.7002 985.82 66.7002C989.354 66.7002 992.654 66.4667 995.721 66C998.658 65.5625 1001.21 64.8321 1003.39 63.8086L1003.82 63.6006C1006.15 62.4006 1007.95 60.8667 1009.22 59C1010.47 57.1875 1011.13 54.9942 1011.21 52.4199L1011.22 51.9004C1011.22 49.9004 1010.89 48.2337 1010.22 46.9004C1009.6 45.5879 1008.77 44.4805 1007.73 43.5781L1007.52 43.4004C1006.39 42.4672 1005.09 41.7335 1003.62 41.2002C1002.4 40.6752 1001.09 40.2273 999.716 39.8555L999.121 39.7002C998.554 39.5669 997.979 39.4341 997.396 39.3008L995.621 38.9004C994.629 38.667 993.714 38.3824 992.875 38.0469L992.521 37.9004C991.587 37.5004 990.821 37.0004 990.221 36.4004C989.754 35.8171 989.492 35.0808 989.434 34.1914L989.421 33.8008C989.421 32.3008 989.919 31.0937 990.915 30.1797L991.121 30C992.254 29.0003 993.387 28.5001 994.521 28.5C995.787 28.5 996.621 29.0339 997.021 30.1006C997.487 31.1006 997.721 32.2004 997.721 33.4004L997.715 33.6943Z" fill="#FEB500"/>
<path d="M919.29 37.3008C919.29 34.0442 920.072 31.1733 921.771 28.8271L921.777 28.8174C923.429 26.5655 925.531 24.7689 928.055 23.4326L928.065 23.4277L928.075 23.4219C930.599 22.1237 933.388 21.1988 936.425 20.6338L936.433 20.6328C939.482 20.0784 942.535 19.8008 945.59 19.8008C949.378 19.8008 952.98 20.1448 956.391 20.8408C959.766 21.5297 962.624 22.4445 964.907 23.623L966.284 24.334L963.286 37.5H949.755L950.849 37.7539L950.862 37.7568L950.875 37.7598C952.561 38.1813 954.155 38.7118 955.654 39.3525C957.289 39.9563 958.763 40.7875 960.062 41.8564C961.424 42.9784 962.495 44.3717 963.279 46.0059L963.432 46.3262C964.168 47.9455 964.49 49.8291 964.49 51.9004C964.49 55.0206 963.743 57.7975 962.145 60.1221L962.146 60.123C960.662 62.3089 958.587 64.0509 956.005 65.3789L955.995 65.3838L955.984 65.3896C953.489 66.6374 950.577 67.4882 947.285 67.9785L947.284 67.9775C944.107 68.4606 940.708 68.7002 937.09 68.7002C931.607 68.7002 926.979 68.2957 923.249 67.4512C919.707 66.6492 917.014 65.8369 915.362 64.9717L914.022 64.2705L916.767 51.2002H932.002C931.449 51.0366 930.903 50.8801 930.364 50.7305C929.38 50.4976 928.298 50.1308 927.129 49.6494L927.108 49.6416L927.089 49.6328C925.814 49.0752 924.612 48.2924 923.48 47.3115C922.258 46.2522 921.27 44.9333 920.501 43.3945L920.493 43.3779L920.484 43.3604C919.655 41.618 919.29 39.5704 919.29 37.3008ZM946.99 33.4004C946.99 32.4667 946.81 31.6589 946.478 30.9463L946.445 30.876L946.418 30.8027C946.379 30.6989 946.343 30.6448 946.325 30.6211C946.309 30.5998 946.297 30.5915 946.287 30.585C946.271 30.5748 946.147 30.5 945.79 30.5C945.287 30.5001 944.605 30.7136 943.714 31.5L943.688 31.5225L943.662 31.5439C943.035 32.0602 942.69 32.7374 942.69 33.8008C942.69 34.4495 942.831 34.8306 942.992 35.0693C943.373 35.4268 943.888 35.7666 944.578 36.0625C945.136 36.3017 945.746 36.5161 946.409 36.707L946.729 35.1084C946.796 34.7752 946.862 34.4416 946.929 34.1084C946.965 33.9245 946.99 33.6911 946.99 33.4004ZM948.984 33.6943C948.972 33.9816 948.941 34.2502 948.891 34.5C948.824 34.8332 948.757 35.1668 948.69 35.5H961.69L963.99 25.4004C962.053 24.4004 959.588 23.5762 956.596 22.9277L955.99 22.8008C952.928 22.1758 949.689 21.8438 946.275 21.8047L945.59 21.8008C942.657 21.8008 939.723 22.0673 936.79 22.6006C933.923 23.1339 931.323 24.0002 928.99 25.2002C926.724 26.4001 924.857 28.0002 923.391 30C921.991 31.9333 921.29 34.3674 921.29 37.3008L921.294 37.6836C921.333 39.582 921.665 41.1875 922.29 42.5C922.957 43.8333 923.79 44.9341 924.79 45.8008C925.79 46.6674 926.824 47.3341 927.891 47.8008C929.024 48.2673 930.024 48.6008 930.891 48.8008C932.09 49.134 933.323 49.5005 934.59 49.9004L935.084 50.0303C936.221 50.3438 937.257 50.7335 938.19 51.2002C939.257 51.6668 940.123 52.2668 940.79 53C941.523 53.6667 941.891 54.4671 941.891 55.4004L941.885 55.5762C941.834 56.463 941.402 57.4374 940.59 58.5C939.79 59.5667 938.424 60.1006 936.49 60.1006V58.1006C938.091 58.1006 938.716 57.6656 938.99 57.3008L939.002 57.2852C939.735 56.3265 939.891 55.7165 939.891 55.4004C939.891 55.0688 939.79 54.7944 939.445 54.4805L939.374 54.416L939.311 54.3457C938.863 53.8538 938.242 53.4056 937.389 53.0322L937.342 53.0117L937.296 52.9893C936.401 52.5417 935.371 52.1639 934.196 51.8643L933.852 53.5928C933.81 53.7994 933.79 54.0013 933.79 54.2002V55.1006C933.79 56.2935 934.039 57.0609 934.368 57.5605C934.594 57.785 935.144 58.1006 936.49 58.1006V60.1006L936.171 60.0957C934.605 60.0449 933.478 59.6132 932.79 58.8008C932.123 57.8675 931.79 56.6338 931.79 55.1006V54.2002C931.79 53.8669 931.824 53.5335 931.891 53.2002H918.391L916.29 63.2002C917.69 63.9335 920.157 64.7 923.69 65.5C927.224 66.3 931.69 66.7002 937.09 66.7002C940.623 66.7002 943.924 66.4667 946.99 66C949.928 65.5625 952.484 64.8321 954.66 63.8086L955.09 63.6006C957.423 62.4006 959.224 60.8667 960.49 59C961.74 57.1875 962.404 54.9942 962.482 52.4199L962.49 51.9004C962.49 49.9004 962.157 48.2337 961.49 46.9004C960.865 45.5879 960.035 44.4805 959 43.5781L958.79 43.4004C957.657 42.4672 956.357 41.7335 954.891 41.2002C953.666 40.6752 952.364 40.2273 950.985 39.8555L950.391 39.7002C949.824 39.5669 949.248 39.4341 948.665 39.3008L946.891 38.9004C945.899 38.667 944.983 38.3824 944.145 38.0469L943.79 37.9004C942.857 37.5004 942.09 37.0004 941.49 36.4004C941.024 35.8171 940.762 35.0808 940.703 34.1914L940.69 33.8008C940.69 32.3008 941.189 31.0937 942.185 30.1797L942.391 30C943.524 29.0003 944.657 28.5001 945.79 28.5C947.057 28.5 947.89 29.0339 948.29 30.1006C948.757 31.1006 948.99 32.2004 948.99 33.4004L948.984 33.6943Z" fill="#FEB500"/>
<path d="M884.402 53.6006C884.402 52.5339 884.436 51.3333 884.503 50C884.636 48.6669 884.836 47.2671 885.103 45.8008H913.203L913.399 45.5215C914.368 44.1114 915.103 42.4374 915.603 40.5C916.069 38.6335 916.332 36.8946 916.391 35.2832L916.402 34.6006C916.402 30.338 914.807 27.1704 911.616 25.0977L911.303 24.9004C908.178 22.9629 903.588 21.9336 897.533 21.8125L896.303 21.8008C890.169 21.8008 885.036 22.5333 880.902 24C876.836 25.4667 873.569 27.4338 871.103 29.9004L870.66 30.3545C868.488 32.6474 866.902 35.2628 865.902 38.2002C864.902 41.3335 864.402 44.5341 864.402 47.8008L864.41 48.4688C864.48 51.7773 865.078 54.5879 866.203 56.9004C867.47 59.3003 869.169 61.2336 871.303 62.7002C873.436 64.1669 875.936 65.2008 878.803 65.8008C881.669 66.4008 884.769 66.7002 888.103 66.7002C889.903 66.7002 891.803 66.6004 893.803 66.4004C895.553 66.2837 897.277 66.0901 898.977 65.8203L899.703 65.7002C901.395 65.3502 903.01 64.9239 904.548 64.4209L905.203 64.2002C906.936 63.6002 908.47 62.8666 909.803 62L912.402 51.3008H896.003C895.603 52.634 895.036 53.8338 894.303 54.9004L894.05 55.293C893.452 56.1898 892.802 56.959 892.103 57.6006L891.826 57.8672C891.177 58.4725 890.503 58.9507 889.803 59.3008L889.531 59.4414C888.904 59.7477 888.328 59.9004 887.803 59.9004V57.9004C887.963 57.9004 888.296 57.8441 888.845 57.5449L888.876 57.5273L888.908 57.5117C889.488 57.2218 890.083 56.7915 890.688 56.1865L890.72 56.1553L890.751 56.126C891.399 55.5322 892.021 54.778 892.606 53.8408L892.63 53.8037L892.654 53.7676C893.261 52.8844 893.742 51.875 894.087 50.7256L894.515 49.3008H914.947L911.559 63.2441L910.893 63.6777C909.404 64.645 907.721 65.4457 905.857 66.0908C904.037 66.721 902.12 67.243 900.108 67.6592L900.075 67.666L900.043 67.6709C898.059 68.0129 896.043 68.2521 893.996 68.3906C891.94 68.5961 889.974 68.7002 888.103 68.7002C884.65 68.7002 881.411 68.3896 878.393 67.7578C875.301 67.1107 872.548 65.9836 870.17 64.3486C867.757 62.6898 865.844 60.5058 864.434 57.834L864.404 57.7754C863.037 54.9649 862.402 51.6129 862.402 47.8008C862.402 44.3265 862.935 40.9212 863.997 37.5928L864.003 37.5742L864.01 37.5557C865.178 34.1251 867.078 31.097 869.688 28.4863C872.407 25.7681 875.946 23.6623 880.225 22.1191L880.234 22.1152C884.649 20.5488 890.026 19.8008 896.303 19.8008C903.111 19.8008 908.556 20.8438 912.356 23.2002C916.416 25.6739 918.402 29.5966 918.402 34.6006C918.402 36.5954 918.108 38.7271 917.543 40.9854L917.541 40.9932L917.539 41C916.954 43.2679 916.059 45.2739 914.82 46.9766L914.221 47.8008H886.799C886.676 48.6138 886.574 49.4007 886.497 50.1621C886.434 51.445 886.402 52.5905 886.402 53.6006C886.402 54.1283 886.432 54.7331 886.494 55.4189C886.545 55.9772 886.643 56.5016 886.782 56.9951C886.929 57.3053 887.095 57.5789 887.28 57.8213C887.361 57.8553 887.517 57.9004 887.803 57.9004V59.9004L887.511 59.8906C886.847 59.8469 886.311 59.6508 885.902 59.3008C885.502 58.8341 885.169 58.3002 884.902 57.7002C884.752 57.2004 884.64 56.6818 884.565 56.1445L884.503 55.6006C884.453 55.0504 884.422 54.5376 884.409 54.0625L884.402 53.6006ZM896.402 33.9004C896.402 32.9616 896.326 32.2619 896.207 31.7637C896.086 31.2541 895.949 31.0751 895.923 31.0459C895.609 30.7005 895.335 30.6006 895.003 30.6006C894.435 30.6006 893.861 30.7839 893.238 31.2734L893.23 31.2793L893.222 31.2852C892.596 31.7664 891.95 32.4953 891.31 33.543L891.296 33.5654L891.282 33.5869C890.636 34.5861 890.026 35.7951 889.465 37.2295L889.46 37.2432L889.454 37.2578C889.198 37.8833 888.962 38.5308 888.743 39.2002H895.8C895.842 38.9356 895.884 38.6678 895.926 38.3965L895.93 38.3691L895.935 38.3428C896.054 37.6872 896.147 36.9564 896.209 36.1475L896.215 36.0713L896.226 35.9961C896.346 35.2113 896.402 34.5145 896.402 33.9004ZM898.391 34.4629C898.366 35.0379 898.303 35.6508 898.203 36.3008L898.146 36.9375C898.084 37.5626 898.002 38.1501 897.902 38.7002C897.769 39.5668 897.636 40.4003 897.503 41.2002H886.103C886.503 39.5336 887.003 37.9666 887.603 36.5C888.203 34.9668 888.869 33.6333 889.603 32.5C890.244 31.4501 890.937 30.6045 891.681 29.9629L892.003 29.7002C892.936 28.967 893.936 28.6006 895.003 28.6006L895.176 28.6045C896.035 28.6474 896.777 29.0128 897.402 29.7002C898.069 30.4335 898.402 31.8337 898.402 33.9004L898.391 34.4629Z" fill="#FEB500"/>
<path d="M856.963 19.8008C857.333 19.8008 857.795 19.8419 858.303 19.9033C859.042 19.9172 859.784 20.0393 860.523 20.252C861.364 20.4134 862.189 20.6791 862.998 21.0391C863.968 21.3745 864.883 21.8605 865.739 22.4834L866.79 23.2471L861.781 46.7002H847.326L847.264 44.7646C847.13 40.627 846.762 38.0616 846.29 36.8027L846.285 36.79L846.281 36.7773C846.055 36.1488 845.822 35.8615 845.682 35.7402C845.579 35.6516 845.473 35.6006 845.263 35.6006C844.926 35.6006 844.458 35.6855 843.832 35.9463L843.79 35.9639L843.746 35.9795C843.547 36.052 843.162 36.2886 842.614 36.9062L835.98 67.9004H811.495L821.441 20.9004H841.003L842.1 26.3867C843.338 24.9953 844.747 23.7512 846.322 22.6572C849.155 20.69 852.76 19.8008 856.963 19.8008ZM856.963 21.8008C853.03 21.8008 849.863 22.6341 847.463 24.3008L847.018 24.6172C844.818 26.2226 843 28.1505 841.562 30.4004H840.863L839.363 22.9004H823.062L813.963 65.9004H834.363L840.763 36C841.513 35.0626 842.233 34.4473 842.925 34.1543L843.062 34.1006C843.862 33.7673 844.596 33.6006 845.263 33.6006L845.509 33.6104C846.716 33.7081 847.601 34.5382 848.163 36.1006C848.763 37.7006 849.129 40.5672 849.263 44.7002H860.163L864.562 24.1006C863.829 23.5673 863.063 23.167 862.263 22.9004C861.529 22.5671 860.796 22.3335 860.062 22.2002C859.479 22.0253 858.922 21.9272 858.39 21.9053L858.163 21.9004C857.763 21.8504 857.438 21.8191 857.188 21.8066L856.963 21.8008Z" fill="#FEB500"/>
<path d="M756.051 52C756.051 51.0555 756.122 49.6608 756.256 47.8525C756.397 45.9467 756.712 43.8258 757.191 41.4971L757.203 41.4424C757.761 39.0715 758.526 36.6764 759.493 34.2578L759.499 34.2441L759.504 34.2314C760.577 31.6553 761.979 29.3169 763.71 27.2256L763.735 27.1943C765.575 25.06 767.81 23.3075 770.417 21.9316L770.427 21.9268L770.437 21.9209C773.248 20.4773 776.544 19.8008 780.25 19.8008C781.44 19.8008 782.713 19.9119 784.062 20.125C785.506 20.3529 786.907 20.7705 788.263 21.373C789.718 22.02 791.004 22.9478 792.112 24.1357C792.609 24.6684 793.051 25.2584 793.44 25.8994L796.902 20.9004H816.616L807.907 62.2129C807.269 65.3949 806.203 68.3502 804.701 71.0674C803.15 73.8745 800.981 76.2879 798.236 78.3105L798.235 78.3096C795.526 80.3547 792.158 81.9128 788.19 83.0264L788.189 83.0254C784.225 84.1567 779.465 84.7002 773.95 84.7002C772.924 84.7002 771.711 84.6653 770.316 84.5996C768.909 84.5991 767.471 84.5652 766.002 84.499C764.523 84.4983 763.106 84.4652 761.751 84.3975C760.408 84.3303 759.316 84.2627 758.484 84.1934L756.108 83.9951L759.077 72.7461L760.859 73.0244C762.889 73.3415 764.952 73.5 767.051 73.5H767.08L767.109 73.501C769.364 73.5673 771.276 73.6006 772.851 73.6006V75.6006L771.588 75.5938C770.263 75.5813 768.751 75.55 767.051 75.5C764.851 75.5 762.684 75.3333 760.551 75L758.65 82.2002C759.45 82.2669 760.517 82.3337 761.851 82.4004C763.184 82.4671 764.584 82.5 766.051 82.5C767.517 82.5667 768.951 82.6006 770.351 82.6006C771.75 82.6672 772.95 82.7002 773.95 82.7002C779.35 82.7002 783.917 82.1672 787.65 81.1006C791.45 80.0339 794.584 78.5669 797.051 76.7002C799.426 74.9502 801.303 72.9072 802.682 70.5713L802.95 70.1006C804.35 67.5674 805.35 64.8006 805.95 61.8008L814.15 22.9004H797.95L793.45 29.4004H792.851L792.641 28.8145C792.13 27.4801 791.467 26.375 790.65 25.5C789.717 24.5001 788.65 23.7335 787.45 23.2002C786.4 22.7336 785.325 22.395 784.224 22.1836L783.75 22.1006C782.642 21.9256 781.61 21.8266 780.655 21.8047L780.25 21.8008C776.784 21.8008 773.817 22.4337 771.351 23.7002C768.951 24.9669 766.917 26.5667 765.25 28.5C763.65 30.4332 762.351 32.6002 761.351 35L761.01 35.874C760.237 37.9083 759.617 39.9171 759.15 41.9004L758.983 42.7393C758.612 44.6715 758.367 46.425 758.25 48C758.117 49.7997 758.051 51.1333 758.051 52L758.062 52.7441C758.113 54.465 758.342 56.0839 758.75 57.6006C759.217 59.2671 759.95 60.7334 760.95 62C761.95 63.2 763.251 64.1671 764.851 64.9004C766.413 65.5254 768.269 65.8574 770.417 65.8965L770.851 65.9004C772.659 65.9004 774.288 65.7215 775.739 65.3643L776.351 65.2002C777.809 64.7335 779.088 64.1901 780.189 63.5703L780.65 63.3008C781.85 62.5008 782.817 61.7004 783.551 60.9004C784.351 60.0338 784.951 59.3002 785.351 58.7002H786.051L784.719 65.9111C784.398 67.5372 783.975 68.9339 783.45 70.1006L783.241 70.5879C782.731 71.6963 782.067 72.6008 781.25 73.3008L781.085 73.4473C780.241 74.17 779.163 74.6875 777.851 75L777.335 75.1406C776.095 75.4469 774.601 75.6006 772.851 75.6006V73.6006C774.733 73.6006 776.19 73.4104 777.275 73.085L777.331 73.0684L777.387 73.0547C778.526 72.7835 779.329 72.3522 779.894 71.8311L779.921 71.8057L779.949 71.7822C780.599 71.2249 781.16 70.4416 781.594 69.3574L781.609 69.3184L781.627 69.2793C782.139 68.1415 782.566 66.6802 782.88 64.8604L782.884 64.8369L783.027 64.0557C782.628 64.3629 782.206 64.6673 781.76 64.9648L781.727 64.9863L781.693 65.0068C780.329 65.8406 778.743 66.5348 776.96 67.1055L776.936 67.1133L776.91 67.1201C775.091 67.6507 773.063 67.9004 770.851 67.9004C768.335 67.9004 766.069 67.5426 764.107 66.7578L764.062 66.7393L764.017 66.7188C762.18 65.8768 760.628 64.7373 759.414 63.2803L759.397 63.2607L759.381 63.2393C758.206 61.7504 757.357 60.0422 756.824 58.1396L756.821 58.1299L756.819 58.1201C756.302 56.1992 756.051 54.1558 756.051 52ZM778.25 51.8008C778.25 50.7341 778.384 49.1004 778.65 46.9004C778.942 44.917 779.361 42.9336 779.908 40.9502L780.15 40.1006C780.817 37.8339 781.683 35.8669 782.75 34.2002C783.817 32.467 785.15 31.6007 786.75 31.6006L786.936 31.6045C787.854 31.6474 788.625 32.0128 789.25 32.7002C789.983 33.4335 790.617 34.1671 791.15 34.9004L787.45 52.4004C787.25 52.667 786.917 53.0334 786.45 53.5C786.05 53.9667 785.55 54.4337 784.95 54.9004C784.417 55.3003 783.817 55.6667 783.15 56C782.55 56.3333 781.917 56.5 781.25 56.5V54.5C781.566 54.5 781.867 54.4252 782.179 54.252L782.217 54.2314L782.256 54.2119C782.82 53.9299 783.309 53.6279 783.732 53.3125C784.245 52.913 784.639 52.541 784.932 52.1992L784.981 52.1406L785.036 52.0859C785.277 51.8455 785.46 51.6517 785.596 51.501L789 35.3955C788.654 34.9759 788.269 34.547 787.836 34.1143L787.803 34.0811L787.771 34.0459C787.487 33.7338 787.192 33.6006 786.75 33.6006C786.036 33.6007 785.27 33.9234 784.454 35.249L784.435 35.2783C783.487 36.7583 782.693 38.5458 782.069 40.665C781.431 42.8364 780.951 45.003 780.632 47.166C780.369 49.3387 780.25 50.8647 780.25 51.8008C780.25 52.8884 780.408 53.7095 780.652 54.3203C780.696 54.3843 780.73 54.4048 780.753 54.417C780.797 54.4409 780.936 54.5 781.25 54.5V56.5C780.117 56.4999 779.317 56.0668 778.851 55.2002C778.501 54.3835 778.304 53.4139 778.26 52.291L778.25 51.8008Z" fill="#FEB500"/>
<path d="M754.131 40.6006C754.131 33.8006 752.231 28.9333 748.431 26C744.943 23.2876 739.422 21.8894 731.868 21.8047L731.131 21.8008C722.664 21.8008 715.998 23.4336 711.131 26.7002C707.798 29.0335 705.231 31.9668 703.431 35.5C701.697 39.0333 700.831 42.9674 700.831 47.3008L700.837 47.9082C700.952 54.1384 702.85 58.8354 706.531 62C710.065 65.1333 715.931 66.7002 724.131 66.7002C733.431 66.7002 740.604 64.6985 745.649 60.6943L746.131 60.3008C748.506 58.2384 750.383 55.6776 751.762 52.6191L752.031 52C753.344 48.8125 754.041 45.2734 754.123 41.3828L754.131 40.6006ZM731.831 34.3008C731.831 32.5163 731.63 31.4441 731.393 30.8887L731.359 30.8115L731.333 30.7324C731.32 30.6932 731.308 30.6667 731.3 30.6504C731.299 30.6484 731.298 30.6463 731.297 30.6445C731.254 30.6293 731.145 30.6006 730.931 30.6006C729.987 30.6006 728.972 31.0569 727.891 32.6162C726.754 34.3555 725.8 36.4659 725.047 38.9746C724.278 41.5389 723.699 44.1693 723.312 46.8662C722.986 49.6158 722.831 51.7851 722.831 53.4004C722.831 55.4529 723.118 56.68 723.467 57.3271C723.625 57.6208 723.766 57.7406 723.853 57.7939C723.933 57.8438 724.069 57.9004 724.331 57.9004V59.9004L724.115 59.8936C722.067 59.7707 720.977 57.8689 720.845 54.1875L720.831 53.4004C720.831 51.6671 720.998 49.4005 721.331 46.6006C721.681 44.1506 722.184 41.7513 722.84 39.4033L723.131 38.4004C723.931 35.7337 724.964 33.4333 726.23 31.5C727.564 29.5668 729.131 28.6007 730.931 28.6006L731.15 28.6064C732.225 28.6649 732.918 29.163 733.23 30.1006C733.63 31.0339 733.831 32.4341 733.831 34.3008L733.821 35.1191C733.778 37.0733 733.58 39.3337 733.23 41.9004L733.097 42.9727C732.761 45.4663 732.272 47.9092 731.631 50.3008C730.898 52.9673 729.897 55.234 728.631 57.1006L728.403 57.4395C727.251 59.0801 725.894 59.9003 724.331 59.9004V57.9004C725.099 57.9003 725.98 57.5245 726.948 56.0186L726.976 55.9775C728.095 54.3279 729.014 52.2717 729.702 49.7705C730.408 47.137 730.922 44.4365 731.244 41.6689L731.246 41.6494L731.249 41.6299C731.641 38.7548 731.831 36.3165 731.831 34.3008ZM756.131 40.6006C756.131 45.0248 755.392 49.0883 753.88 52.7617L753.875 52.7744C752.366 56.3682 750.225 59.3941 747.442 61.8105L747.419 61.8301C741.86 66.5113 733.995 68.7002 724.131 68.7002C715.771 68.7002 709.291 67.1212 705.204 63.4971V63.4961C700.853 59.742 698.831 54.2153 698.831 47.3008C698.831 42.6934 699.755 38.4534 701.636 34.6191L701.642 34.6064L701.648 34.5928C703.601 30.7597 706.39 27.5776 709.984 25.0615L710 25.0508L710.017 25.04C715.329 21.4741 722.435 19.8008 731.131 19.8008C739.21 19.8008 745.524 21.2093 749.652 24.417C754.124 27.8691 756.131 33.4531 756.131 40.6006Z" fill="#FEB500"/>
<path d="M693.291 19.8008C693.661 19.8008 694.123 19.8419 694.631 19.9033C695.37 19.9172 696.112 20.0393 696.852 20.252C697.692 20.4134 698.517 20.6791 699.326 21.0391C700.296 21.3745 701.211 21.8605 702.067 22.4834L703.118 23.2471L698.109 46.7002H683.654L683.592 44.7646C683.458 40.627 683.09 38.0616 682.618 36.8027L682.613 36.79L682.609 36.7773C682.383 36.1488 682.15 35.8615 682.01 35.7402C681.907 35.6516 681.801 35.6006 681.591 35.6006C681.255 35.6006 680.786 35.6855 680.16 35.9463L680.118 35.9639L680.074 35.9795C679.875 36.052 679.49 36.2886 678.942 36.9062L672.309 67.9004H647.823L657.77 20.9004H677.331L678.428 26.3867C679.666 24.9953 681.075 23.7512 682.65 22.6572C685.483 20.69 689.089 19.8008 693.291 19.8008ZM693.291 21.8008C689.358 21.8008 686.191 22.6341 683.791 24.3008L683.346 24.6172C681.147 26.2226 679.328 28.1505 677.891 30.4004H677.191L675.691 22.9004H659.391L650.291 65.9004H670.691L677.091 36C677.841 35.0626 678.562 34.4473 679.253 34.1543L679.391 34.1006C680.191 33.7673 680.924 33.6006 681.591 33.6006L681.837 33.6104C683.044 33.7081 683.929 34.5382 684.491 36.1006C685.091 37.7006 685.457 40.5672 685.591 44.7002H696.491L700.891 24.1006C700.157 23.5673 699.391 23.167 698.591 22.9004C697.858 22.5671 697.124 22.3335 696.391 22.2002C695.808 22.0253 695.25 21.9272 694.718 21.9053L694.491 21.9004C694.091 21.8504 693.766 21.8191 693.516 21.8066L693.291 21.8008Z" fill="#FEB500"/>
<path d="M648.593 35.7002C648.593 34.067 648.439 32.5104 648.133 31.0303L647.992 30.4004C647.617 28.8378 647.008 27.4805 646.164 26.3281L645.992 26.1006C645.059 24.9006 643.792 23.9674 642.192 23.3008C640.659 22.5675 638.726 22.2002 636.393 22.2002C633.526 22.2002 630.593 22.7671 627.593 23.9004L627.046 24.1094C624.327 25.1953 621.843 26.9258 619.593 29.3008H618.992L617.192 22.9004H600.893L588.293 82.7002H608.692L613.692 59.4004H614.293C614.76 60.3336 615.459 61.2669 616.393 62.2002C617.393 63.0669 618.526 63.8333 619.793 64.5C621.06 65.1666 622.459 65.7006 623.992 66.1006C625.592 66.5006 627.226 66.7002 628.893 66.7002C631.893 66.7002 634.459 66.0674 636.593 64.8008C638.793 63.5342 640.592 61.9003 641.992 59.9004C643.367 58.0254 644.479 55.9746 645.326 53.748L645.492 53.3008C646.359 50.8341 647.026 48.4669 647.492 46.2002C647.901 44.1586 648.182 42.2957 648.335 40.6113L648.393 39.9004C648.493 38.5006 648.555 37.3632 648.58 36.4883L648.593 35.7002ZM625.235 33.8672L625.233 33.8662C625.223 33.8605 625.109 33.8008 624.793 33.8008C624.062 33.8008 623.299 34.0564 622.464 34.7441L622.437 34.7676L622.407 34.7891C621.556 35.4398 620.949 35.9839 620.54 36.4219L616.942 53.3057C617.277 53.7116 617.65 54.1248 618.065 54.543C618.419 54.8552 618.798 55 619.293 55V57L619.106 56.9961C618.185 56.957 617.38 56.625 616.692 56C615.959 55.2669 615.326 54.5339 614.793 53.8008L618.692 35.5C619.226 34.8334 620.059 34.0668 621.192 33.2002C622.326 32.2669 623.526 31.8008 624.793 31.8008L625.001 31.8057C626.02 31.8565 626.718 32.2881 627.093 33.1006C627.559 33.9672 627.793 35.0672 627.793 36.4004L627.785 36.8535C627.749 37.9764 627.585 39.5589 627.293 41.6006L627.184 42.4521C626.907 44.4426 626.476 46.4585 625.893 48.5C625.226 50.7665 624.36 52.7668 623.293 54.5C622.226 56.1665 620.893 56.9999 619.293 57V55C620.04 54.9999 620.8 54.6733 621.594 53.4424C622.551 51.8841 623.35 50.0553 623.974 47.9365C624.61 45.7052 625.054 43.5158 625.307 41.3672L625.31 41.3418L625.312 41.3174C625.644 39.0003 625.793 37.3841 625.793 36.4004C625.793 35.2861 625.596 34.5391 625.332 34.0488L625.303 33.9941L625.276 33.9385C625.252 33.8865 625.236 33.8679 625.235 33.8672ZM650.593 35.7002C650.593 36.7076 650.522 38.1659 650.388 40.043C650.247 42.0124 649.933 44.198 649.454 46.5928L649.451 46.6035C648.964 48.9685 648.273 51.4223 647.38 53.9629L647.377 53.9717L647.374 53.9795C646.444 56.554 645.188 58.9245 643.605 61.083L643.604 61.082C642.038 63.3084 640.033 65.1219 637.612 66.5195L637.613 66.5205C635.112 68.0054 632.176 68.7002 628.893 68.7002C627.064 68.7002 625.268 68.481 623.508 68.041L623.498 68.0381L623.487 68.0352C621.822 67.6006 620.277 67.0154 618.861 66.2705C617.47 65.5383 616.208 64.6867 615.083 63.7119L615.029 63.665L614.979 63.6143C614.938 63.5741 614.9 63.5325 614.86 63.4922L610.309 84.7002H585.827L599.271 20.9004H618.708L620.146 26.0146C622.039 24.3956 624.091 23.1351 626.302 22.252L626.909 22.0205C630.1 20.8177 633.265 20.2002 636.393 20.2002C638.892 20.2002 641.123 20.5874 642.994 21.4678C644.853 22.2478 646.405 23.3721 647.571 24.8721C648.7 26.3239 649.48 28.0254 649.938 29.9336C650.377 31.766 650.593 33.6902 650.593 35.7002Z" fill="#FEB500"/>
<path d="M526.321 37.3008C526.321 34.0442 527.103 31.1733 528.802 28.8271L528.809 28.8174C530.46 26.5655 532.562 24.7689 535.086 23.4326L535.097 23.4277L535.106 23.4219C537.631 22.1237 540.419 21.1988 543.456 20.6338L543.464 20.6328C546.513 20.0784 549.566 19.8008 552.621 19.8008C556.409 19.8008 560.011 20.1448 563.422 20.8408C566.797 21.5297 569.655 22.4445 571.938 23.623L573.315 24.334L570.317 37.5H556.786L557.88 37.7539L557.894 37.7568L557.906 37.7598C559.592 38.1813 561.187 38.7118 562.686 39.3525C564.32 39.9563 565.795 40.7875 567.093 41.8564C568.455 42.9784 569.527 44.3717 570.311 46.0059L570.463 46.3262C571.199 47.9455 571.521 49.8291 571.521 51.9004C571.521 55.0206 570.775 57.7975 569.176 60.1221L569.177 60.123C567.693 62.3089 565.618 64.0509 563.036 65.3789L563.026 65.3838L563.016 65.3896C560.52 66.6374 557.608 67.4882 554.316 67.9785L554.315 67.9775C551.139 68.4606 547.739 68.7002 544.121 68.7002C538.638 68.7002 534.01 68.2957 530.28 67.4512C526.738 66.6492 524.045 65.8369 522.394 64.9717L521.054 64.2705L523.798 51.2002H539.033C538.48 51.0366 537.934 50.8801 537.396 50.7305C536.411 50.4976 535.329 50.1308 534.16 49.6494L534.14 49.6416L534.12 49.6328C532.846 49.0752 531.644 48.2924 530.512 47.3115C529.289 46.2522 528.302 44.9333 527.532 43.3945L527.524 43.3779L527.516 43.3604C526.686 41.618 526.321 39.5704 526.321 37.3008ZM554.021 33.4004C554.021 32.4667 553.841 31.6589 553.509 30.9463L553.477 30.876L553.449 30.8027C553.41 30.6989 553.375 30.6448 553.356 30.6211C553.34 30.5998 553.329 30.5915 553.318 30.585C553.302 30.5748 553.178 30.5 552.821 30.5C552.318 30.5001 551.636 30.7136 550.745 31.5L550.719 31.5225L550.693 31.5439C550.067 32.0602 549.722 32.7374 549.722 33.8008C549.722 34.4495 549.862 34.8306 550.023 35.0693C550.404 35.4268 550.919 35.7666 551.609 36.0625C552.168 36.3017 552.778 36.5161 553.44 36.707L553.761 35.1084C553.827 34.7752 553.893 34.4416 553.96 34.1084C553.997 33.9245 554.021 33.6911 554.021 33.4004ZM556.016 33.6943C556.003 33.9816 555.972 34.2502 555.922 34.5C555.855 34.8332 555.788 35.1668 555.722 35.5H568.722L571.021 25.4004C569.084 24.4004 566.619 23.5762 563.627 22.9277L563.021 22.8008C559.959 22.1758 556.721 21.8438 553.307 21.8047L552.621 21.8008C549.688 21.8008 546.754 22.0673 543.821 22.6006C540.955 23.1339 538.355 24.0002 536.021 25.2002C533.755 26.4001 531.888 28.0002 530.422 30C529.022 31.9333 528.321 34.3674 528.321 37.3008L528.325 37.6836C528.364 39.582 528.696 41.1875 529.321 42.5C529.988 43.8333 530.821 44.9341 531.821 45.8008C532.821 46.6674 533.855 47.3341 534.922 47.8008C536.055 48.2673 537.055 48.6008 537.922 48.8008C539.122 49.134 540.355 49.5005 541.621 49.9004L542.115 50.0303C543.253 50.3438 544.288 50.7335 545.222 51.2002C546.288 51.6668 547.155 52.2668 547.821 53C548.555 53.6667 548.922 54.4671 548.922 55.4004L548.916 55.5762C548.865 56.463 548.434 57.4374 547.621 58.5C546.821 59.5667 545.455 60.1006 543.521 60.1006V58.1006C545.123 58.1006 545.748 57.6656 546.021 57.3008L546.033 57.2852C546.766 56.3265 546.922 55.7165 546.922 55.4004C546.922 55.0688 546.822 54.7944 546.477 54.4805L546.405 54.416L546.342 54.3457C545.895 53.8538 545.273 53.4056 544.42 53.0322L544.373 53.0117L544.327 52.9893C543.432 52.5417 542.402 52.1639 541.228 51.8643L540.883 53.5928C540.841 53.7994 540.821 54.0013 540.821 54.2002V55.1006C540.821 56.2935 541.07 57.0609 541.399 57.5605C541.625 57.785 542.175 58.1006 543.521 58.1006V60.1006L543.202 60.0957C541.636 60.0449 540.509 59.6132 539.821 58.8008C539.155 57.8675 538.821 56.6338 538.821 55.1006V54.2002C538.821 53.8669 538.855 53.5335 538.922 53.2002H525.422L523.321 63.2002C524.721 63.9335 527.188 64.7 530.722 65.5C534.255 66.3 538.721 66.7002 544.121 66.7002C547.654 66.7002 550.955 66.4667 554.021 66C556.959 65.5625 559.516 64.8321 561.691 63.8086L562.121 63.6006C564.454 62.4006 566.255 60.8667 567.521 59C568.771 57.1875 569.436 54.9942 569.514 52.4199L569.521 51.9004C569.521 49.9004 569.188 48.2337 568.521 46.9004C567.896 45.5879 567.066 44.4805 566.031 43.5781L565.821 43.4004C564.688 42.4672 563.388 41.7335 561.922 41.2002C560.697 40.6752 559.395 40.2273 558.017 39.8555L557.422 39.7002C556.855 39.5669 556.28 39.4341 555.696 39.3008L553.922 38.9004C552.93 38.667 552.014 38.3824 551.176 38.0469L550.821 37.9004C549.888 37.5004 549.121 37.0004 548.521 36.4004C548.055 35.8171 547.793 35.0808 547.734 34.1914L547.722 33.8008C547.722 32.3008 548.22 31.0937 549.216 30.1797L549.422 30C550.555 29.0003 551.688 28.5001 552.821 28.5C554.088 28.5 554.921 29.0339 555.321 30.1006C555.788 31.1006 556.021 32.2004 556.021 33.4004L556.016 33.6943Z" fill="#FEB500"/>
<path d="M526.925 9.80078C526.925 7.30095 526.134 5.41601 524.552 4.14648L524.225 3.90039C522.537 2.71289 520.498 2.08203 518.107 2.00781L517.625 2C516.158 2 514.724 2.20058 513.324 2.60059C511.991 3.00058 510.791 3.60047 509.725 4.40039L509.359 4.68652C508.528 5.37925 507.849 6.25072 507.324 7.30078C506.724 8.43396 506.425 9.73381 506.425 11.2002L506.436 11.7041C506.541 14.1808 507.437 16.0127 509.125 17.2002C510.813 18.3877 512.881 19.0186 515.33 19.0928L515.824 19.1006C517.049 19.1006 518.249 18.9469 519.423 18.6406L519.925 18.5C521.258 18.1 522.425 17.5001 523.425 16.7002C524.491 15.9003 525.325 14.9339 525.925 13.8008C526.55 12.7384 526.882 11.4998 526.921 10.0859L526.925 9.80078ZM503.824 22.9004L494.725 65.9004H515.024L524.324 22.9004H503.824ZM528.925 9.80078C528.925 11.599 528.537 13.2666 527.692 14.7363L527.55 14.9971C526.819 16.2885 525.837 17.3917 524.625 18.3008L524.624 18.2988C523.418 19.2527 522.036 19.955 520.499 20.416C519.796 20.6268 519.085 20.787 518.366 20.9004H526.804L516.639 67.9004H492.257L502.203 20.9004H513.208C511.27 20.5914 509.511 19.9176 507.974 18.8359C505.511 17.1032 504.425 14.4074 504.425 11.2002C504.425 9.45467 504.783 7.82492 505.557 6.36426C506.239 5.01333 507.153 3.86862 508.306 2.9668L508.542 2.78711C509.801 1.84638 511.208 1.14702 512.75 0.68457L512.763 0.680664L512.775 0.677734C514.355 0.226322 515.974 0 517.625 0C520.56 6.36825e-05 523.181 0.720342 525.376 2.26465C527.824 3.98755 528.925 6.63946 528.925 9.80078Z" fill="#FEB500"/>
<path d="M473.886 35.7002C473.886 34.067 473.732 32.5104 473.426 31.0303L473.285 30.4004C472.91 28.8378 472.301 27.4805 471.457 26.3281L471.285 26.1006C470.352 24.9006 469.085 23.9674 467.485 23.3008C465.952 22.5675 464.019 22.2002 461.686 22.2002C458.819 22.2002 455.886 22.7671 452.886 23.9004L452.339 24.1094C449.62 25.1953 447.136 26.9258 444.886 29.3008H444.285L442.485 22.9004H426.186L413.586 82.7002H433.985L438.985 59.4004H439.586C440.053 60.3336 440.752 61.2669 441.686 62.2002C442.686 63.0669 443.819 63.8333 445.086 64.5C446.352 65.1666 447.752 65.7006 449.285 66.1006C450.885 66.5006 452.519 66.7002 454.186 66.7002C457.186 66.7002 459.752 66.0674 461.886 64.8008C464.086 63.5342 465.885 61.9003 467.285 59.9004C468.66 58.0254 469.771 55.9746 470.619 53.748L470.785 53.3008C471.652 50.8341 472.318 48.4669 472.785 46.2002C473.193 44.1586 473.475 42.2957 473.628 40.6113L473.686 39.9004C473.786 38.5006 473.848 37.3632 473.873 36.4883L473.886 35.7002ZM450.528 33.8672L450.526 33.8662C450.516 33.8605 450.402 33.8008 450.086 33.8008C449.355 33.8008 448.592 34.0564 447.757 34.7441L447.729 34.7676L447.7 34.7891C446.849 35.4398 446.242 35.9839 445.833 36.4219L442.235 53.3057C442.57 53.7116 442.943 54.1248 443.358 54.543C443.712 54.8552 444.091 55 444.586 55V57L444.399 56.9961C443.478 56.957 442.673 56.625 441.985 56C441.252 55.2669 440.619 54.5339 440.086 53.8008L443.985 35.5C444.519 34.8334 445.352 34.0668 446.485 33.2002C447.619 32.2669 448.819 31.8008 450.086 31.8008L450.294 31.8057C451.313 31.8565 452.011 32.2881 452.386 33.1006C452.852 33.9672 453.086 35.0672 453.086 36.4004L453.078 36.8535C453.042 37.9764 452.878 39.5589 452.586 41.6006L452.477 42.4521C452.199 44.4426 451.769 46.4585 451.186 48.5C450.519 50.7665 449.652 52.7668 448.586 54.5C447.519 56.1665 446.186 56.9999 444.586 57V55C445.333 54.9999 446.093 54.6733 446.887 53.4424C447.844 51.8841 448.643 50.0553 449.267 47.9365C449.903 45.7052 450.347 43.5158 450.6 41.3672L450.603 41.3418L450.605 41.3174C450.936 39.0003 451.086 37.3841 451.086 36.4004C451.086 35.2861 450.889 34.5391 450.625 34.0488L450.596 33.9941L450.569 33.9385C450.545 33.8865 450.529 33.8679 450.528 33.8672ZM475.886 35.7002C475.886 36.7076 475.815 38.1659 475.681 40.043C475.54 42.0124 475.226 44.198 474.747 46.5928L474.744 46.6035C474.257 48.9685 473.565 51.4223 472.673 53.9629L472.67 53.9717L472.667 53.9795C471.737 56.554 470.481 58.9245 468.898 61.083L468.897 61.082C467.331 63.3084 465.326 65.1219 462.905 66.5195L462.906 66.5205C460.405 68.0054 457.469 68.7002 454.186 68.7002C452.357 68.7002 450.561 68.481 448.801 68.041L448.791 68.0381L448.78 68.0352C447.115 67.6006 445.57 67.0154 444.154 66.2705C442.763 65.5383 441.501 64.6867 440.376 63.7119L440.322 63.665L440.271 63.6143C440.231 63.5741 440.193 63.5325 440.153 63.4922L435.602 84.7002H411.12L424.563 20.9004H444.001L445.438 26.0146C447.332 24.3956 449.384 23.1351 451.595 22.252L452.202 22.0205C455.393 20.8177 458.558 20.2002 461.686 20.2002C464.185 20.2002 466.416 20.5874 468.287 21.4678C470.146 22.2478 471.698 23.3721 472.864 24.8721C473.993 26.3239 474.773 28.0254 475.23 29.9336C475.67 31.766 475.886 33.6902 475.886 35.7002Z" fill="#FEB500"/>
<path d="M384.598 53.6006C384.598 52.5339 384.632 51.3333 384.698 50C384.832 48.6669 385.031 47.2671 385.298 45.8008H413.398L413.595 45.5215C414.563 44.1114 415.298 42.4374 415.798 40.5C416.264 38.6335 416.528 36.8946 416.586 35.2832L416.598 34.6006C416.598 30.338 415.002 27.1704 411.812 25.0977L411.498 24.9004C408.373 22.9629 403.783 21.9336 397.729 21.8125L396.498 21.8008C390.365 21.8008 385.231 22.5333 381.098 24C377.031 25.4667 373.764 27.4338 371.298 29.9004L370.855 30.3545C368.684 32.6474 367.098 35.2628 366.098 38.2002C365.098 41.3335 364.598 44.5341 364.598 47.8008L364.605 48.4688C364.676 51.7773 365.273 54.5879 366.398 56.9004C367.665 59.3003 369.365 61.2336 371.498 62.7002C373.631 64.1669 376.131 65.2008 378.998 65.8008C381.865 66.4008 384.965 66.7002 388.298 66.7002C390.098 66.7002 391.998 66.6004 393.998 66.4004C395.748 66.2837 397.473 66.0901 399.172 65.8203L399.898 65.7002C401.59 65.3502 403.205 64.9239 404.743 64.4209L405.398 64.2002C407.132 63.6002 408.665 62.8666 409.998 62L412.598 51.3008H396.198C395.798 52.634 395.231 53.8338 394.498 54.9004L394.245 55.293C393.647 56.1898 392.998 56.959 392.298 57.6006L392.021 57.8672C391.372 58.4725 390.698 58.9507 389.998 59.3008L389.727 59.4414C389.099 59.7477 388.523 59.9004 387.998 59.9004V57.9004C388.158 57.9004 388.492 57.8441 389.04 57.5449L389.071 57.5273L389.104 57.5117C389.683 57.2218 390.279 56.7915 390.884 56.1865L390.915 56.1553L390.946 56.126C391.594 55.5322 392.216 54.778 392.802 53.8408L392.825 53.8037L392.85 53.7676C393.457 52.8844 393.937 51.875 394.282 50.7256L394.71 49.3008H415.143L411.754 63.2441L411.088 63.6777C409.6 64.645 407.916 65.4457 406.053 66.0908C404.232 66.721 402.315 67.243 400.304 67.6592L400.271 67.666L400.238 67.6709C398.255 68.0129 396.238 68.2521 394.191 68.3906C392.135 68.5961 390.17 68.7002 388.298 68.7002C384.845 68.7002 381.606 68.3896 378.588 67.7578C375.496 67.1107 372.743 65.9836 370.365 64.3486C367.952 62.6898 366.039 60.5058 364.629 57.834L364.6 57.7754C363.232 54.9649 362.598 51.6129 362.598 47.8008C362.598 44.3265 363.13 40.9212 364.192 37.5928L364.198 37.5742L364.205 37.5557C365.373 34.1251 367.273 31.097 369.884 28.4863C372.602 25.7681 376.141 23.6623 380.42 22.1191L380.43 22.1152C384.845 20.5488 390.221 19.8008 396.498 19.8008C403.306 19.8008 408.751 20.8438 412.552 23.2002C416.611 25.6739 418.598 29.5966 418.598 34.6006C418.598 36.5954 418.303 38.7271 417.738 40.9854L417.736 40.9932L417.734 41C417.149 43.2679 416.254 45.2739 415.016 46.9766L414.416 47.8008H386.994C386.871 48.6138 386.769 49.4007 386.692 50.1621C386.629 51.445 386.598 52.5905 386.598 53.6006C386.598 54.1283 386.627 54.7331 386.689 55.4189C386.74 55.9772 386.839 56.5016 386.978 56.9951C387.124 57.3053 387.29 57.5789 387.476 57.8213C387.556 57.8553 387.712 57.9004 387.998 57.9004V59.9004L387.706 59.8906C387.042 59.8469 386.506 59.6508 386.098 59.3008C385.698 58.8341 385.364 58.3002 385.098 57.7002C384.948 57.2004 384.836 56.6818 384.761 56.1445L384.698 55.6006C384.648 55.0504 384.617 54.5376 384.604 54.0625L384.598 53.6006ZM396.598 33.9004C396.598 32.9616 396.521 32.2619 396.402 31.7637C396.281 31.2541 396.145 31.0751 396.118 31.0459C395.804 30.7005 395.53 30.6006 395.198 30.6006C394.63 30.6006 394.057 30.7839 393.434 31.2734L393.426 31.2793L393.417 31.2852C392.791 31.7664 392.145 32.4953 391.505 33.543L391.491 33.5654L391.478 33.5869C390.831 34.5861 390.221 35.7951 389.66 37.2295L389.655 37.2432L389.649 37.2578C389.394 37.8833 389.157 38.5308 388.938 39.2002H395.995C396.037 38.9356 396.079 38.6678 396.121 38.3965L396.125 38.3691L396.13 38.3428C396.249 37.6872 396.342 36.9564 396.404 36.1475L396.41 36.0713L396.421 35.9961C396.542 35.2113 396.598 34.5145 396.598 33.9004ZM398.586 34.4629C398.561 35.0379 398.498 35.6508 398.398 36.3008L398.342 36.9375C398.279 37.5626 398.198 38.1501 398.098 38.7002C397.964 39.5668 397.832 40.4003 397.698 41.2002H386.298C386.698 39.5336 387.198 37.9666 387.798 36.5C388.398 34.9668 389.065 33.6333 389.798 32.5C390.439 31.4501 391.132 30.6045 391.876 29.9629L392.198 29.7002C393.132 28.967 394.132 28.6006 395.198 28.6006L395.371 28.6045C396.231 28.6474 396.973 29.0128 397.598 29.7002C398.264 30.4335 398.598 31.8337 398.598 33.9004L398.586 34.4629Z" fill="#FEB500"/>
<path d="M351.417 56C351.417 55.3334 351.517 54.4 351.717 53.2002C351.917 52.0003 352.183 50.6337 352.517 49.1006L354.471 49.5254C354.142 51.0353 353.883 52.3692 353.689 53.5293C353.495 54.6933 353.417 55.4987 353.417 56C353.417 56.3622 353.469 56.5449 353.497 56.6152C354.177 56.8267 355.696 57 358.316 57H360.798L358.517 67.4951L357.366 67.8232C356.685 68.0178 355.775 68.1279 354.75 68.1963L354.749 68.1953C353.816 68.2619 352.755 68.3284 351.567 68.3945C350.395 68.5289 349.169 68.5962 347.889 68.5986C346.677 68.6654 345.586 68.7002 344.617 68.7002C342.843 68.7002 341.099 68.5587 339.388 68.2734C337.61 68.0427 335.968 67.5506 334.485 66.7705L334.449 66.751L334.415 66.7314C332.837 65.8177 331.565 64.5348 330.602 62.9297L330.582 62.8975L330.564 62.8643C329.608 61.1259 329.217 58.9511 329.217 56.5C329.217 55.6497 329.253 54.61 329.32 53.3896L329.323 53.334L329.329 53.2793C329.472 51.9975 329.717 50.5985 330.06 49.0869L333.75 31.6006H325.956L328.125 21.2197L329.395 20.9453C331.798 20.4256 333.878 19.8476 335.645 19.2168C337.376 18.5986 338.933 17.8324 340.324 16.9248L340.341 16.915L340.356 16.9043C341.805 15.9991 343.177 14.8743 344.47 13.5195L344.503 13.4863C345.898 12.0916 347.41 10.3567 349.041 8.26953L349.642 7.5H363.396L360.496 20.9004H368.242L366.166 31.6006H358.24L354.474 49.5117L354.471 49.5254L352.517 49.1006L356.617 29.6006H364.517L365.816 22.9004H358.017L360.917 9.5H350.617C348.951 11.6333 347.384 13.4337 345.917 14.9004L345.387 15.4395C344.14 16.6716 342.817 17.7256 341.417 18.6006L340.834 18.9678C339.456 19.8063 337.95 20.5173 336.316 21.1006L335.603 21.3477C333.904 21.9164 331.975 22.4337 329.816 22.9004L328.417 29.6006H336.217L332.017 49.5C331.683 50.9665 331.45 52.3001 331.316 53.5C331.25 54.6998 331.217 55.7001 331.217 56.5C331.217 58.7666 331.583 60.5671 332.316 61.9004C333.116 63.2337 334.15 64.2667 335.417 65C336.684 65.6667 338.117 66.1008 339.717 66.3008C341.117 66.5341 342.542 66.6652 343.993 66.6943L344.617 66.7002C345.55 66.7002 346.617 66.6672 347.816 66.6006C349.083 66.6006 350.284 66.5337 351.417 66.4004C352.617 66.3337 353.684 66.2669 354.617 66.2002C355.617 66.1335 356.35 66.0337 356.816 65.9004L358.316 59C355.65 59 353.816 58.8333 352.816 58.5C351.942 58.1874 351.476 57.4356 351.422 56.2441L351.417 56Z" fill="#FEB500"/>
<path d="M278.567 37.3008C278.567 34.0442 279.349 31.1733 281.048 28.8271L281.055 28.8174C282.706 26.5655 284.808 24.7689 287.332 23.4326L287.343 23.4277L287.353 23.4219C289.877 22.1237 292.665 21.1988 295.702 20.6338L295.71 20.6328C298.759 20.0784 301.812 19.8008 304.867 19.8008C308.655 19.8008 312.257 20.1448 315.668 20.8408C319.043 21.5297 321.901 22.4445 324.185 23.623L325.562 24.334L322.563 37.5H309.032L310.126 37.7539L310.14 37.7568L310.152 37.7598C311.839 38.1813 313.433 38.7118 314.932 39.3525C316.566 39.9563 318.041 40.7875 319.339 41.8564C320.701 42.9784 321.773 44.3717 322.557 46.0059L322.709 46.3262C323.445 47.9455 323.768 49.8291 323.768 51.9004C323.768 55.0206 323.021 57.7975 321.422 60.1221L321.423 60.123C319.94 62.3089 317.864 64.0509 315.282 65.3789L315.272 65.3838L315.262 65.3896C312.766 66.6374 309.854 67.4882 306.562 67.9785L306.562 67.9775C303.385 68.4606 299.985 68.7002 296.367 68.7002C290.884 68.7002 286.256 68.2957 282.526 67.4512C278.985 66.6492 276.291 65.8369 274.64 64.9717L273.3 64.2705L276.044 51.2002H291.279C290.726 51.0366 290.18 50.8801 289.642 50.7305C288.657 50.4976 287.575 50.1308 286.406 49.6494L286.386 49.6416L286.366 49.6328C285.092 49.0752 283.89 48.2924 282.758 47.3115C281.536 46.2522 280.548 44.9333 279.778 43.3945L279.771 43.3779L279.762 43.3604C278.932 41.618 278.567 39.5704 278.567 37.3008ZM306.268 33.4004C306.268 32.4667 306.087 31.6589 305.755 30.9463L305.723 30.876L305.695 30.8027C305.656 30.6989 305.621 30.6448 305.603 30.6211C305.586 30.5998 305.575 30.5915 305.564 30.585C305.549 30.5748 305.425 30.5 305.067 30.5C304.564 30.5001 303.883 30.7136 302.991 31.5L302.965 31.5225L302.939 31.5439C302.313 32.0602 301.968 32.7374 301.968 33.8008C301.968 34.4495 302.108 34.8306 302.27 35.0693C302.651 35.4268 303.165 35.7666 303.855 36.0625C304.414 36.3017 305.024 36.5161 305.687 36.707L306.007 35.1084C306.073 34.7752 306.139 34.4416 306.206 34.1084C306.243 33.9245 306.268 33.6911 306.268 33.4004ZM308.262 33.6943C308.249 33.9816 308.218 34.2502 308.168 34.5C308.101 34.8332 308.034 35.1668 307.968 35.5H320.968L323.268 25.4004C321.33 24.4004 318.865 23.5762 315.873 22.9277L315.268 22.8008C312.205 22.1758 308.967 21.8438 305.553 21.8047L304.867 21.8008C301.934 21.8008 299.001 22.0673 296.067 22.6006C293.201 23.1339 290.601 24.0002 288.268 25.2002C286.001 26.4001 284.135 28.0002 282.668 30C281.268 31.9333 280.567 34.3674 280.567 37.3008L280.571 37.6836C280.61 39.582 280.942 41.1875 281.567 42.5C282.234 43.8333 283.067 44.9341 284.067 45.8008C285.067 46.6674 286.101 47.3341 287.168 47.8008C288.301 48.2673 289.301 48.6008 290.168 48.8008C291.368 49.134 292.601 49.5005 293.867 49.9004L294.361 50.0303C295.499 50.3438 296.534 50.7335 297.468 51.2002C298.534 51.6668 299.401 52.2668 300.067 53C300.801 53.6667 301.168 54.4671 301.168 55.4004L301.162 55.5762C301.111 56.463 300.68 57.4374 299.867 58.5C299.067 59.5667 297.701 60.1006 295.768 60.1006V58.1006C297.369 58.1006 297.994 57.6656 298.268 57.3008L298.279 57.2852C299.012 56.3265 299.168 55.7165 299.168 55.4004C299.168 55.0688 299.068 54.7944 298.723 54.4805L298.651 54.416L298.588 54.3457C298.141 53.8538 297.519 53.4056 296.666 53.0322L296.619 53.0117L296.573 52.9893C295.678 52.5417 294.648 52.1639 293.474 51.8643L293.129 53.5928C293.088 53.7994 293.067 54.0013 293.067 54.2002V55.1006C293.067 56.2935 293.317 57.0609 293.646 57.5605C293.871 57.785 294.422 58.1006 295.768 58.1006V60.1006L295.448 60.0957C293.882 60.0449 292.755 59.6132 292.067 58.8008C291.401 57.8675 291.067 56.6338 291.067 55.1006V54.2002C291.067 53.8669 291.101 53.5335 291.168 53.2002H277.668L275.567 63.2002C276.967 63.9335 279.434 64.7 282.968 65.5C286.501 66.3 290.967 66.7002 296.367 66.7002C299.901 66.7002 303.201 66.4667 306.268 66C309.205 65.5625 311.762 64.8321 313.938 63.8086L314.367 63.6006C316.701 62.4006 318.501 60.8667 319.768 59C321.018 57.1875 321.682 54.9942 321.76 52.4199L321.768 51.9004C321.768 49.9004 321.434 48.2337 320.768 46.9004C320.143 45.5879 319.312 44.4805 318.277 43.5781L318.067 43.4004C316.934 42.4672 315.634 41.7335 314.168 41.2002C312.943 40.6752 311.641 40.2273 310.263 39.8555L309.668 39.7002C309.101 39.5669 308.526 39.4341 307.942 39.3008L306.168 38.9004C305.176 38.667 304.261 38.3824 303.422 38.0469L303.067 37.9004C302.134 37.5004 301.368 37.0004 300.768 36.4004C300.301 35.8171 300.039 35.0808 299.98 34.1914L299.968 33.8008C299.968 32.3008 300.466 31.0937 301.462 30.1797L301.668 30C302.801 29.0003 303.934 28.5001 305.067 28.5C306.334 28.5 307.167 29.0339 307.567 30.1006C308.034 31.1006 308.268 32.2004 308.268 33.4004L308.262 33.6943Z" fill="#FEB500"/>
<path d="M235.326 20.9004L237.847 45.6045L251.124 20.9004H266.334L240.564 66.8779L240.561 66.8857L240.557 66.8926C238.096 71.1993 235.542 74.6203 232.873 77.0732C230.23 79.5017 227.31 81.3102 224.116 82.4736L224.117 82.4746C221.03 83.6233 217.625 84.2553 213.922 84.3975C210.411 84.5997 206.409 84.7002 201.92 84.7002H199.438L201.808 73.8008H203.42C205.6 73.8008 207.609 73.7678 209.448 73.7021L209.451 73.7012C211.309 73.6371 212.653 73.4472 213.556 73.1816L213.585 73.1729L213.615 73.165C214.788 72.8591 215.393 72.3694 215.724 71.8408L215.739 71.8154L215.756 71.791C216.102 71.2723 216.42 70.2413 216.42 68.4004C216.42 67.1948 216.299 65.7666 216.043 64.1045L216.037 64.0674L216.033 64.0293C215.835 62.3125 215.604 60.4943 215.339 58.5742L210.124 20.9004H235.326ZM218.42 68.4004C218.42 70.4004 218.087 71.9004 217.42 72.9004C216.753 73.967 215.653 74.7006 214.12 75.1006L213.676 75.2188C212.597 75.4812 211.211 75.6419 209.52 75.7002C207.653 75.7669 205.62 75.8008 203.42 75.8008L201.92 82.7002C206.387 82.7002 210.354 82.6004 213.82 82.4004C217.353 82.267 220.553 81.6672 223.42 80.6006C226.17 79.6006 228.715 78.0732 231.055 76.0186L231.52 75.6006C233.832 73.4756 236.115 70.5008 238.369 66.6768L238.82 65.9004L262.92 22.9004H252.32L236.52 52.3008L233.52 22.9004H212.42L217.32 58.3008C217.587 60.234 217.82 62.0676 218.02 63.8008C218.286 65.534 218.42 67.0671 218.42 68.4004Z" fill="#FEB500"/>
<path d="M202.08 19.8008C202.45 19.8008 202.912 19.8419 203.42 19.9033C204.159 19.9172 204.901 20.0393 205.641 20.252C206.481 20.4134 207.306 20.6791 208.115 21.0391C209.086 21.3745 210 21.8605 210.856 22.4834L211.907 23.2471L206.898 46.7002H192.443L192.381 44.7646C192.247 40.627 191.879 38.0616 191.407 36.8027L191.402 36.79L191.398 36.7773C191.172 36.1488 190.939 35.8615 190.799 35.7402C190.696 35.6516 190.59 35.6006 190.38 35.6006C190.044 35.6006 189.575 35.6855 188.949 35.9463L188.907 35.9639L188.863 35.9795C188.664 36.052 188.279 36.2886 187.731 36.9062L181.098 67.9004H156.612L166.559 20.9004H186.12L187.217 26.3867C188.455 24.9953 189.864 23.7512 191.439 22.6572C194.272 20.69 197.878 19.8008 202.08 19.8008ZM202.08 21.8008C198.147 21.8008 194.98 22.6341 192.58 24.3008L192.135 24.6172C189.936 26.2226 188.117 28.1505 186.68 30.4004H185.98L184.48 22.9004H168.18L159.08 65.9004H179.48L185.88 36C186.63 35.0626 187.351 34.4473 188.042 34.1543L188.18 34.1006C188.98 33.7673 189.713 33.6006 190.38 33.6006L190.626 33.6104C191.833 33.7081 192.718 34.5382 193.28 36.1006C193.88 37.7006 194.247 40.5672 194.38 44.7002H205.28L209.68 24.1006C208.946 23.5673 208.18 23.167 207.38 22.9004C206.647 22.5671 205.913 22.3335 205.18 22.2002C204.597 22.0253 204.039 21.9272 203.507 21.9053L203.28 21.9004C202.88 21.8504 202.555 21.8191 202.305 21.8066L202.08 21.8008Z" fill="#FEB500"/>
<path d="M126.492 53.6006C126.492 52.5339 126.526 51.3333 126.593 50C126.726 48.6669 126.926 47.2671 127.192 45.8008H155.293L155.489 45.5215C156.458 44.1114 157.192 42.4374 157.692 40.5C158.159 38.6335 158.422 36.8946 158.48 35.2832L158.492 34.6006C158.492 30.338 156.897 27.1704 153.706 25.0977L153.393 24.9004C150.268 22.9629 145.678 21.9336 139.623 21.8125L138.393 21.8008C132.259 21.8008 127.126 22.5333 122.992 24C118.926 25.4667 115.659 27.4338 113.192 29.9004L112.75 30.3545C110.578 32.6474 108.992 35.2628 107.992 38.2002C106.992 41.3335 106.492 44.5341 106.492 47.8008L106.5 48.4688C106.57 51.7773 107.168 54.5879 108.293 56.9004C109.56 59.3003 111.259 61.2336 113.393 62.7002C115.526 64.1669 118.026 65.2008 120.893 65.8008C123.759 66.4008 126.859 66.7002 130.192 66.7002C131.992 66.7002 133.893 66.6004 135.893 66.4004C137.643 66.2837 139.367 66.0901 141.066 65.8203L141.793 65.7002C143.484 65.3502 145.099 64.9239 146.638 64.4209L147.293 64.2002C149.026 63.6002 150.559 62.8666 151.893 62L154.492 51.3008H138.093C137.693 52.634 137.126 53.8338 136.393 54.9004L136.14 55.293C135.542 56.1898 134.892 56.959 134.192 57.6006L133.916 57.8672C133.267 58.4725 132.593 58.9507 131.893 59.3008L131.621 59.4414C130.994 59.7477 130.418 59.9004 129.893 59.9004V57.9004C130.052 57.9004 130.386 57.8441 130.935 57.5449L130.966 57.5273L130.998 57.5117C131.578 57.2218 132.173 56.7915 132.778 56.1865L132.81 56.1553L132.841 56.126C133.489 55.5322 134.111 54.778 134.696 53.8408L134.72 53.8037L134.744 53.7676C135.351 52.8844 135.832 51.875 136.177 50.7256L136.604 49.3008H157.037L153.648 63.2441L152.982 63.6777C151.494 64.645 149.811 65.4457 147.947 66.0908C146.127 66.721 144.209 67.243 142.198 67.6592L142.165 67.666L142.133 67.6709C140.149 68.0129 138.133 68.2521 136.086 68.3906C134.029 68.5961 132.064 68.7002 130.192 68.7002C126.74 68.7002 123.501 68.3896 120.482 67.7578C117.391 67.1107 114.638 65.9836 112.26 64.3486C109.847 62.6898 107.934 60.5058 106.523 57.834L106.494 57.7754C105.127 54.9649 104.492 51.6129 104.492 47.8008C104.492 44.3265 105.025 40.9212 106.087 37.5928L106.093 37.5742L106.1 37.5557C107.268 34.1251 109.168 31.097 111.778 28.4863C114.497 25.7681 118.036 23.6623 122.314 22.1191L122.324 22.1152C126.739 20.5488 132.115 19.8008 138.393 19.8008C145.201 19.8008 150.645 20.8438 154.446 23.2002C158.506 25.6739 160.492 29.5966 160.492 34.6006C160.492 36.5954 160.197 38.7271 159.633 40.9854L159.631 40.9932L159.629 41C159.044 43.2679 158.148 45.2739 156.91 46.9766L156.311 47.8008H128.889C128.766 48.6138 128.664 49.4007 128.587 50.1621C128.524 51.445 128.492 52.5905 128.492 53.6006C128.492 54.1283 128.522 54.7331 128.584 55.4189C128.635 55.9772 128.733 56.5016 128.872 56.9951C129.018 57.3053 129.185 57.5789 129.37 57.8213C129.451 57.8553 129.607 57.9004 129.893 57.9004V59.9004L129.601 59.8906C128.937 59.8469 128.401 59.6508 127.992 59.3008C127.592 58.8341 127.259 58.3002 126.992 57.7002C126.842 57.2004 126.73 56.6818 126.655 56.1445L126.593 55.6006C126.543 55.0504 126.512 54.5376 126.499 54.0625L126.492 53.6006ZM138.492 33.9004C138.492 32.9616 138.416 32.2619 138.297 31.7637C138.176 31.2541 138.039 31.0751 138.013 31.0459C137.699 30.7005 137.424 30.6006 137.093 30.6006C136.525 30.6006 135.951 30.7839 135.328 31.2734L135.32 31.2793L135.312 31.2852C134.686 31.7664 134.04 32.4953 133.399 33.543L133.386 33.5654L133.372 33.5869C132.726 34.5861 132.116 35.7951 131.555 37.2295L131.55 37.2432L131.544 37.2578C131.288 37.8833 131.051 38.5308 130.833 39.2002H137.89C137.931 38.9356 137.974 38.6678 138.016 38.3965L138.02 38.3691L138.024 38.3428C138.144 37.6872 138.237 36.9564 138.299 36.1475L138.305 36.0713L138.315 35.9961C138.436 35.2113 138.492 34.5145 138.492 33.9004ZM140.48 34.4629C140.455 35.0379 140.393 35.6508 140.293 36.3008L140.236 36.9375C140.174 37.5626 140.092 38.1501 139.992 38.7002C139.859 39.5668 139.726 40.4003 139.593 41.2002H128.192C128.592 39.5336 129.092 37.9666 129.692 36.5C130.292 34.9668 130.959 33.6333 131.692 32.5C132.334 31.4501 133.027 30.6045 133.771 29.9629L134.093 29.7002C135.026 28.967 136.026 28.6006 137.093 28.6006L137.266 28.6045C138.125 28.6474 138.867 29.0128 139.492 29.7002C140.159 30.4335 140.492 31.8337 140.492 33.9004L140.48 34.4629Z" fill="#FEB500"/>
<path d="M81.4473 20.9004L84.8926 45.6152L97.167 20.9004H112.324L87.5127 67.9004H63.7021L56.1602 20.9004H81.4473ZM58.5068 22.9004L65.4062 65.9004H86.3066L109.007 22.9004H98.4062L83.8066 52.3008L79.707 22.9004H58.5068Z" fill="#FEB500"/>
<path d="M22 53.6006C22 52.5339 22.0339 51.3333 22.1006 50C22.2339 48.6669 22.4336 47.2671 22.7002 45.8008H50.8008L50.9971 45.5215C51.9658 44.1114 52.7002 42.4374 53.2002 40.5C53.6668 38.6335 53.93 36.8946 53.9883 35.2832L54 34.6006C54 30.338 52.4048 27.1704 49.2139 25.0977L48.9004 24.9004C45.7754 22.9629 41.1855 21.9336 35.1309 21.8125L33.9004 21.8008C27.7671 21.8008 22.6333 22.5333 18.5 24C14.4334 25.4667 11.1668 27.4338 8.7002 29.9004L8.25781 30.3545C6.086 32.6474 4.49999 35.2628 3.5 38.2002C2.5 41.3335 2 44.5341 2 47.8008L2.00781 48.4688C2.07813 51.7773 2.67578 54.5879 3.80078 56.9004C5.06742 59.3003 6.76715 61.2336 8.90039 62.7002C11.0337 64.1669 13.5337 65.2008 16.4004 65.8008C19.267 66.4008 22.367 66.7002 25.7002 66.7002C27.5002 66.7002 29.4004 66.6004 31.4004 66.4004C33.1505 66.2837 34.8751 66.0901 36.5742 65.8203L37.3008 65.7002C38.9922 65.3502 40.6072 64.9239 42.1455 64.4209L42.8008 64.2002C44.5339 63.6002 46.0672 62.8666 47.4004 62L50 51.3008H33.6006C33.2006 52.634 32.6337 53.8338 31.9004 54.9004L31.6475 55.293C31.0496 56.1898 30.4001 56.959 29.7002 57.6006L29.4238 57.8672C28.7748 58.4725 28.1005 58.9507 27.4004 59.3008L27.1289 59.4414C26.5018 59.7477 25.9254 59.9004 25.4004 59.9004V57.9004C25.5602 57.9004 25.8939 57.8441 26.4424 57.5449L26.4736 57.5273L26.5059 57.5117C27.0856 57.2218 27.6811 56.7915 28.2861 56.1865L28.3174 56.1553L28.3486 56.126C28.9964 55.5322 29.6183 54.778 30.2041 53.8408L30.2275 53.8037L30.252 53.7676C30.8591 52.8844 31.3397 51.875 31.6846 50.7256L32.1123 49.3008H52.5449L49.1562 63.2441L48.4902 63.6777C47.0021 64.645 45.3187 65.4457 43.4551 66.0908C41.6345 66.721 39.7173 67.243 37.7061 67.6592L37.6729 67.666L37.6406 67.6709C35.6569 68.0129 33.6408 68.2521 31.5938 68.3906C29.5372 68.5961 27.5721 68.7002 25.7002 68.7002C22.2478 68.7002 19.0086 68.3896 15.9902 67.7578C12.8985 67.1107 10.1458 65.9836 7.76758 64.3486C5.3547 62.6898 3.44139 60.5058 2.03125 57.834L2.00195 57.7754C0.634664 54.9649 4.34218e-05 51.6129 0 47.8008C0 44.3265 0.532531 40.9212 1.59473 37.5928L1.60059 37.5742L1.60742 37.5557C2.77532 34.1251 4.67544 31.097 7.28613 28.4863C10.0043 25.7681 13.5436 23.6623 17.8223 22.1191L17.832 22.1152C22.2469 20.5488 27.6232 19.8008 33.9004 19.8008C40.7087 19.8008 46.1532 20.8438 49.9541 23.2002C54.0135 25.6739 56 29.5966 56 34.6006C56 36.5954 55.7052 38.7271 55.1406 40.9854L55.1387 40.9932L55.1367 41C54.5515 43.2679 53.6562 45.2739 52.418 46.9766L51.8184 47.8008H24.3965C24.2733 48.6138 24.1715 49.4007 24.0947 50.1621C24.0314 51.445 24 52.5905 24 53.6006C24 54.1283 24.0295 54.7331 24.0918 55.4189C24.1425 55.9772 24.241 56.5016 24.3799 56.9951C24.5262 57.3053 24.6925 57.5789 24.8779 57.8213C24.9586 57.8553 25.1145 57.9004 25.4004 57.9004V59.9004L25.1084 59.8906C24.4448 59.8469 23.9084 59.6508 23.5 59.3008C23.1 58.8341 22.7667 58.3002 22.5 57.7002C22.3501 57.2004 22.2381 56.6818 22.1631 56.1445L22.1006 55.6006C22.0506 55.0504 22.0193 54.5376 22.0068 54.0625L22 53.6006ZM34 33.9004C34 32.9616 33.9233 32.2619 33.8047 31.7637C33.6834 31.2541 33.547 31.0751 33.5205 31.0459C33.2065 30.7005 32.9322 30.6006 32.6006 30.6006C32.0327 30.6006 31.459 30.7839 30.8359 31.2734L30.8281 31.2793L30.8193 31.2852C30.1937 31.7664 29.5475 32.4953 28.9072 33.543L28.8936 33.5654L28.8799 33.5869C28.2334 34.5861 27.6238 35.7951 27.0625 37.2295L27.0576 37.2432L27.0518 37.2578C26.7959 37.8833 26.5592 38.5308 26.3408 39.2002H33.3975C33.4392 38.9356 33.4817 38.6678 33.5234 38.3965L33.5273 38.3691L33.5322 38.3428C33.6514 37.6872 33.7444 36.9564 33.8066 36.1475L33.8125 36.0713L33.8232 35.9961C33.944 35.2113 34 34.5145 34 33.9004ZM35.9883 34.4629C35.9633 35.0379 35.9008 35.6508 35.8008 36.3008L35.7441 36.9375C35.6816 37.5626 35.6 38.1501 35.5 38.7002C35.3667 39.5668 35.2339 40.4003 35.1006 41.2002H23.7002C24.1002 39.5336 24.6002 37.9666 25.2002 36.5C25.8002 34.9668 26.4669 33.6333 27.2002 32.5C27.8418 31.4501 28.5347 30.6045 29.2783 29.9629L29.6006 29.7002C30.5339 28.967 31.534 28.6006 32.6006 28.6006L32.7734 28.6045C33.6329 28.6474 34.375 29.0128 35 29.7002C35.6667 30.4335 36 31.8337 36 33.9004L35.9883 34.4629Z" fill="#FEB500"/>
</svg>
